<svg width="1200" height="330" viewBox="0 0 1200 330" fill="none" xmlns="http://www.w3.org/2000/svg">
  <defs>
    <clipPath id="frame"><rect width="1200" height="330" rx="12"/></clipPath>
    <pattern id="grid" width="28" height="28" patternUnits="userSpaceOnUse">
      <path d="M28 0H0V28" stroke="#17324D" stroke-opacity="0.035" stroke-width="1"/>
    </pattern>
  </defs>

  <g clip-path="url(#frame)">
    <rect width="1200" height="330" fill="#F7F6F1"/>
    <rect width="1200" height="330" fill="url(#grid)"/>
    <rect x="32" y="28" width="1136" height="274" stroke="#17324D" stroke-opacity="0.18"/>
    <path d="M32 76H1168" stroke="#17324D" stroke-opacity="0.18"/>
    <rect x="32" y="28" width="8" height="48" fill="#A14B36"/>

    <text x="58" y="59" fill="#17324D" font-family="Arial, Helvetica, sans-serif" font-size="12" font-weight="700" letter-spacing="3">RESEARCH PROFILE  /  COMPUTER SCIENCE</text>
    <text x="1110" y="59" fill="#A14B36" font-family="Georgia, Times New Roman, serif" font-size="13" font-style="italic">JY · 01</text>

    <text x="76" y="157" fill="#152A40" font-family="Georgia, Times New Roman, serif" font-size="58" font-weight="700" letter-spacing="1">Jun Yang</text>
    <line x1="78" y1="177" x2="538" y2="177" stroke="#A14B36" stroke-width="2"/>
    <text x="77" y="213" fill="#3E5265" font-family="Arial, Helvetica, sans-serif" font-size="18" letter-spacing="1.2">ARTIFICIAL INTELLIGENCE · COMPUTER VISION</text>
    <text x="77" y="246" fill="#647382" font-family="Georgia, Times New Roman, serif" font-size="17" font-style="italic">Jiangsu University · Nanjing, China</text>

    <g transform="translate(690 102)">
      <text x="0" y="-16" fill="#647382" font-family="Arial, Helvetica, sans-serif" font-size="10" letter-spacing="1.8">REPRESENTATION  →  REASONING  →  DISCOVERY</text>

      <line x1="0" y1="138" x2="420" y2="138" stroke="#17324D" stroke-opacity="0.35"/>
      <line x1="0" y1="6" x2="0" y2="138" stroke="#17324D" stroke-opacity="0.35"/>
      <text x="-6" y="157" fill="#647382" font-family="Georgia, Times New Roman, serif" font-size="11" font-style="italic">scale</text>

      <circle cx="36" cy="108" r="8" fill="#F7F6F1" stroke="#A14B36" stroke-width="2"/>
      <circle cx="118" cy="88" r="8" fill="#F7F6F1" stroke="#17324D" stroke-width="2"/>
      <circle cx="210" cy="103" r="8" fill="#F7F6F1" stroke="#17324D" stroke-width="2"/>
      <circle cx="292" cy="54" r="8" fill="#F7F6F1" stroke="#17324D" stroke-width="2"/>
      <circle cx="384" cy="30" r="8" fill="#A14B36"/>

      <path d="M44 106L110 90M126 89L202 101M218 98L284 59M300 52L376 32" stroke="#17324D" stroke-width="1.6"/>
      <path d="M36 108C95 38 157 44 210 103C258 155 320 91 384 30" stroke="#A14B36" stroke-opacity="0.34" stroke-width="1.4" stroke-dasharray="4 5"/>

      <text x="29" y="91" fill="#647382" font-family="Georgia, Times New Roman, serif" font-size="11">x₀</text>
      <text x="111" y="71" fill="#647382" font-family="Georgia, Times New Roman, serif" font-size="11">f₁</text>
      <text x="203" y="86" fill="#647382" font-family="Georgia, Times New Roman, serif" font-size="11">f₂</text>
      <text x="285" y="37" fill="#647382" font-family="Georgia, Times New Roman, serif" font-size="11">z</text>
      <text x="377" y="13" fill="#A14B36" font-family="Georgia, Times New Roman, serif" font-size="11">ŷ</text>
    </g>

    <text x="1095" y="289" fill="#647382" font-family="Georgia, Times New Roman, serif" font-size="11" font-style="italic">Fig. 1</text>
  </g>
</svg>
